<svg width="210" height="190" viewBox="0 0 210 190" fill="none" xmlns="http://www.w3.org/2000/svg">
<path d="M46.02 187.82L33.4199 166.12L55.5499 127.79L44.49 108.57L78.8199 48.5801H104.51L126.29 86.9501H148.45L183.09 146.96L170.53 168.63H126.29L115.23 187.81H46.01L46.02 187.82ZM48.77 182.86H109.49L101.28 168.63H40.5499L48.76 182.86H48.77ZM105.57 166.16L113.78 180.39L133.07 146.98L124.86 132.75L105.57 166.16ZM129.15 163.68H164.86L134.5 111.09H95.9199L104.13 125.32H126.31L138.78 146.97L129.15 163.68ZM40.5499 163.68H101.28L120.57 130.27H104.15L93.0599 149.46H68.0599L58.4199 132.75L40.5599 163.68H40.5499ZM138.79 108.61L169.15 161.2L177.36 146.98L147 94.3901L138.79 108.61ZM70.9099 144.5H87.34L68.0499 111.09H51.63L70.9099 144.5ZM72.34 108.61L91.63 142.02L99.84 127.79L88.76 108.61L101.36 86.9401H120.56L102.71 56.0101L72.35 108.6L72.34 108.61ZM95.9199 106.13H134.5L142.71 91.9101H104.14L95.9299 106.13H95.9199ZM51.62 106.13H68.0399L98.3999 53.5401H81.97L51.61 106.13H51.62Z" fill="url(#paint0_linear_1016_13163)"/>
<path opacity="0.5" d="M196.33 175.09L185.94 157.08L187.81 153.87L187.93 153.65L191.81 146.97L213.9 185.22H125.4L131.29 175.09H196.33Z" fill="#74E0CB"/>
<path opacity="0.5" d="M94.95 41.04L106.95 20.27L141.2 79.6L152.91 79.59L106.95 0L83.25 41.05L94.95 41.04Z" fill="#74E0CB"/>
<path opacity="0.5" d="M29.7899 175.09H17.5599L45.8099 126.16L39.97 115.99L0 185.22H35.72L29.7899 175.09Z" fill="#74E0CB"/>
<defs>
<linearGradient id="paint0_linear_1016_13163" x1="58.6494" y1="460.228" x2="205.92" y2="17.79" gradientUnits="userSpaceOnUse">
<stop offset="0.03" stop-color="#1A7362"/>
<stop offset="0.39" stop-color="#22947E"/>
<stop offset="0.46" stop-color="#239982"/>
<stop offset="0.54" stop-color="#26A88F"/>
<stop offset="0.63" stop-color="#2CC2A5"/>
<stop offset="0.67" stop-color="#30D1B2"/>
</linearGradient>
</defs>
</svg>
