<?xml version="1.0" encoding="UTF-8"?>
<svg id="Layer_12" xmlns="http://www.w3.org/2000/svg" version="1.1" viewBox="0 0 1123.5 1123.5">
  <!-- Generator: Adobe Illustrator 30.2.1, SVG Export Plug-In . SVG Version: 2.1.1 Build 1)  -->
  <defs>
    <style>
      .st0 {
        fill: #fff;
      }
    </style>
  </defs>
  <g id="Background">
    <g>
      <polygon class="st0" points="501.8 612.2 561.8 716.1 621.7 612.2 501.8 612.2"/>
      <polygon class="st0" points="486.9 590.1 532.8 590.1 442.7 434 257.3 754.4 303.3 754.4 442.7 513.5 486.9 590.1"/>
      <polygon class="st0" points="660.4 410.7 563 241.8 465.4 410.3 562.8 579.1 660.4 410.7"/>
      <polygon class="st0" points="503.1 846.5 482.9 881.7 550.7 881.7 550.7 743.9 446.4 563.2 336 754.5 521.7 754.5 521.7 846.5 503.1 846.5"/>
      <polygon class="st0" points="788.8 754.5 678.3 563.2 575.1 742.1 575.1 881.7 641.9 881.7 621.6 846.5 603 846.5 603 754.5 788.8 754.5"/>
      <polygon class="st0" points="680.8 434 590.7 590.1 636.6 590.1 680.8 513.5 820.2 754.4 866.2 754.4 680.8 434"/>
    </g>
  </g>
</svg>