<?xml version="1.0" encoding="UTF-8" standalone="no"?>
<svg
   viewBox="0 0 160 160"
   fill="none"
   version="1.1"
   id="svg5"
   sodipodi:docname="logo-mongodb.svg"
   inkscape:version="1.3 (0e150ed, 2023-07-21)"
   xmlns:inkscape="http://www.inkscape.org/namespaces/inkscape"
   xmlns:sodipodi="http://sodipodi.sourceforge.net/DTD/sodipodi-0.dtd"
   xmlns="http://www.w3.org/2000/svg"
   xmlns:svg="http://www.w3.org/2000/svg">
  <sodipodi:namedview
     id="namedview5"
     pagecolor="#ffffff"
     bordercolor="#000000"
     borderopacity="0.25"
     inkscape:showpageshadow="2"
     inkscape:pageopacity="0.0"
     inkscape:pagecheckerboard="0"
     inkscape:deskcolor="#d1d1d1"
     inkscape:zoom="1.475"
     inkscape:cx="79.661017"
     inkscape:cy="79.661017"
     inkscape:window-width="1312"
     inkscape:window-height="730"
     inkscape:window-x="0"
     inkscape:window-y="38"
     inkscape:window-maximized="0"
     inkscape:current-layer="g4" />
  <g
     clip-path="url(#clip0_12880_82216)"
     id="g4"
     transform="matrix(1.9537625,0,0,1.8299233,-77.046359,-79.287423)">
    <path
       d="M 46.914416,119.24425 40.163065,107.52853 52.020751,86.834874 46.094594,76.45836 64.489186,44.071 h 13.765231 l 11.670012,20.715226 h 11.873891 l 18.5606,32.397915 -6.72978,11.699479 H 89.924429 l -5.926068,10.35521 H 46.909043 Z m 1.473547,-2.67858 h 32.534814 l -4.399155,-7.68205 H 43.983437 l 4.399154,7.68205 z m 30.434401,-9.01548 4.398975,7.68206 10.335968,-18.037283 -4.399066,-7.682333 z m 12.63453,-1.33883 H 110.59108 L 94.323584,77.818847 H 73.65165 l 4.399154,7.682514 h 11.88437 l 6.6816,11.688193 z m -47.473457,0 H 76.523622 L 86.859589,88.173799 h -8.79813 L 72.119275,98.533805 H 58.723841 L 53.558499,89.512634 43.98881,106.21136 Z m 52.638709,-29.731348 16.267414,28.392498 4.39906,-7.677543 -16.2675,-28.392055 z m -36.371302,19.37612 h 8.803502 L 58.718469,77.818847 h -8.79813 z m 0.766277,-19.37612 10.335967,18.037376 4.398975,-7.682514 -5.936813,-10.354862 6.751352,-11.6992 H 86.854217 L 77.289899,48.082363 61.022493,76.474599 Z M 73.65165,75.141087 h 20.671934 l 4.399064,-7.677101 H 78.056176 l -4.399153,7.677101 z m -23.736683,0 h 8.798129 L 74.980503,46.74885 H 66.17709 L 49.909683,75.141087 Z"
       id="path1"
       style="stroke-width:1.40168" />
  </g>
</svg>
