<?xml version="1.0" encoding="UTF-8"?>
<svg id="Layer_12" data-name="Layer 12" xmlns="http://www.w3.org/2000/svg" viewBox="0 0 1123.51 1123.51">
  <defs>
    <style>
      .cls-1 {
        fill: #239948;
      }
    </style>
  </defs>
  <g id="Background">
    <g>
      <polygon class="cls-1" points="501.79 612.21 561.75 716.06 621.71 612.21 501.79 612.21"/>
      <polygon class="cls-1" points="486.9 590.12 532.84 590.12 442.68 433.95 257.32 754.36 303.26 754.36 442.68 513.52 486.9 590.12"/>
      <polygon class="cls-1" points="660.38 410.67 563.02 241.84 465.41 410.26 562.78 579.09 660.38 410.67"/>
      <polygon class="cls-1" points="503.15 846.54 482.87 881.66 550.73 881.66 550.73 743.9 446.41 563.2 335.99 754.45 521.71 754.45 521.71 846.54 503.15 846.54"/>
      <polygon class="cls-1" points="788.76 754.45 678.34 563.2 575.06 742.09 575.06 881.66 641.87 881.66 621.6 846.54 603.04 846.54 603.04 754.45 788.76 754.45"/>
      <polygon class="cls-1" points="680.83 433.95 590.66 590.12 636.6 590.12 680.83 513.52 820.24 754.36 866.18 754.36 680.83 433.95"/>
    </g>
  </g>
</svg>